<svg width="985" height="819" viewBox="0 0 985 819" fill="none" xmlns="http://www.w3.org/2000/svg">
<g filter="url(#filter0_f_703_3720)">
<path d="M543.022 319.201C456.916 422.887 148.332 549.85 207.483 598.971C266.633 648.093 671.119 600.771 757.225 497.084C843.33 393.398 865.182 269.523 806.031 220.402C746.881 171.281 629.127 215.515 543.022 319.201Z" fill="#7098FF"/>
<path d="M543.022 319.201C456.916 422.887 148.332 549.85 207.483 598.971C266.633 648.093 671.119 600.771 757.225 497.084C843.33 393.398 865.182 269.523 806.031 220.402C746.881 171.281 629.127 215.515 543.022 319.201Z" fill="url(#paint0_radial_703_3720)"/>
<path d="M543.022 319.201C456.916 422.887 148.332 549.85 207.483 598.971C266.633 648.093 671.119 600.771 757.225 497.084C843.33 393.398 865.182 269.523 806.031 220.402C746.881 171.281 629.127 215.515 543.022 319.201Z" fill="url(#paint1_radial_703_3720)"/>
<path d="M543.022 319.201C456.916 422.887 148.332 549.85 207.483 598.971C266.633 648.093 671.119 600.771 757.225 497.084C843.33 393.398 865.182 269.523 806.031 220.402C746.881 171.281 629.127 215.515 543.022 319.201Z" fill="url(#paint2_radial_703_3720)"/>
<path d="M543.022 319.201C456.916 422.887 148.332 549.85 207.483 598.971C266.633 648.093 671.119 600.771 757.225 497.084C843.33 393.398 865.182 269.523 806.031 220.402C746.881 171.281 629.127 215.515 543.022 319.201Z" fill="url(#paint3_radial_703_3720)"/>
<path d="M543.022 319.201C456.916 422.887 148.332 549.85 207.483 598.971C266.633 648.093 671.119 600.771 757.225 497.084C843.33 393.398 865.182 269.523 806.031 220.402C746.881 171.281 629.127 215.515 543.022 319.201Z" fill="url(#paint4_radial_703_3720)"/>
<path d="M543.022 319.201C456.916 422.887 148.332 549.85 207.483 598.971C266.633 648.093 671.119 600.771 757.225 497.084C843.33 393.398 865.182 269.523 806.031 220.402C746.881 171.281 629.127 215.515 543.022 319.201Z" fill="url(#paint5_radial_703_3720)"/>
<path d="M543.022 319.201C456.916 422.887 148.332 549.85 207.483 598.971C266.633 648.093 671.119 600.771 757.225 497.084C843.33 393.398 865.182 269.523 806.031 220.402C746.881 171.281 629.127 215.515 543.022 319.201Z" fill="url(#paint6_radial_703_3720)"/>
</g>
<defs>
<filter id="filter0_f_703_3720" x="0.00585938" y="0.351562" width="1039.29" height="818.105" filterUnits="userSpaceOnUse" color-interpolation-filters="sRGB">
<feFlood flood-opacity="0" result="BackgroundImageFix"/>
<feBlend mode="normal" in="SourceGraphic" in2="BackgroundImageFix" result="shape"/>
<feGaussianBlur stdDeviation="100" result="effect1_foregroundBlur_703_3720"/>
</filter>
<radialGradient id="paint0_radial_703_3720" cx="0" cy="0" r="1" gradientUnits="userSpaceOnUse" gradientTransform="translate(664.632 379.054) rotate(117.512) scale(268.738 167.489)">
<stop offset="0.45766" stop-color="#003FE1" stop-opacity="0"/>
<stop offset="0.932292" stop-color="#003FE1"/>
</radialGradient>
<radialGradient id="paint1_radial_703_3720" cx="0" cy="0" r="1" gradientUnits="userSpaceOnUse" gradientTransform="translate(529.909 545.993) rotate(-82.8015) scale(284.35 335.654)">
<stop stop-color="#003FE1"/>
<stop offset="1" stop-color="#003FE1" stop-opacity="0"/>
</radialGradient>
<radialGradient id="paint2_radial_703_3720" cx="0" cy="0" r="1" gradientUnits="userSpaceOnUse" gradientTransform="translate(601.121 257.357) rotate(117.562) scale(271.161 171.742)">
<stop stop-color="#AD54F3"/>
<stop offset="0.970579" stop-color="#AD54F3" stop-opacity="0"/>
</radialGradient>
<radialGradient id="paint3_radial_703_3720" cx="0" cy="0" r="1" gradientUnits="userSpaceOnUse" gradientTransform="translate(744.765 417.262) rotate(168.164) scale(320.617 304.016)">
<stop stop-color="#3834FF"/>
<stop offset="1" stop-color="#3834FF" stop-opacity="0"/>
</radialGradient>
<radialGradient id="paint4_radial_703_3720" cx="0" cy="0" r="1" gradientUnits="userSpaceOnUse" gradientTransform="translate(730.969 205.603) rotate(116.916) scale(340.243 84.7453)">
<stop stop-color="#AD54F3"/>
<stop offset="1" stop-color="#AD54F3" stop-opacity="0"/>
</radialGradient>
<radialGradient id="paint5_radial_703_3720" cx="0" cy="0" r="1" gradientUnits="userSpaceOnUse" gradientTransform="translate(835.329 295.096) rotate(130.774) scale(401.979 205.044)">
<stop stop-color="#00A3FF"/>
<stop offset="1" stop-color="#00A3FF" stop-opacity="0"/>
</radialGradient>
<radialGradient id="paint6_radial_703_3720" cx="0" cy="0" r="1" gradientUnits="userSpaceOnUse" gradientTransform="translate(748.786 355.524) rotate(143.288) scale(476.53 307.965)">
<stop offset="0.410575" stop-color="#F354D0" stop-opacity="0"/>
<stop offset="1" stop-color="#F354D0"/>
</radialGradient>
</defs>
</svg>
